<?xml version="1.0" encoding="UTF-8"?>
<svg version="1.1" xmlns="http://www.w3.org/2000/svg" width="500" height="166">
<path d="M0 0 C6.93 0 13.86 0 21 0 C21 7.26 21 14.52 21 22 C24.96 22 28.92 22 33 22 C33.33 24.97 33.66 27.94 34 31 C34.51046875 30.54109375 35.0209375 30.0821875 35.546875 29.609375 C44.85664456 21.7521936 54.19561484 19.23677307 66.3203125 19.62109375 C75.96056102 20.61377327 84.16089562 24.02301045 91 31 C92.98 33.97 92.98 33.97 95 37 C95.33 32.05 95.66 27.1 96 22 C102.93 22 109.86 22 117 22 C117.33 23.98 117.66 25.96 118 28 C118.44730469 27.59007813 118.89460938 27.18015625 119.35546875 26.7578125 C125.28211369 21.47564281 129.40974741 19.59839913 137.41796875 19.73046875 C141.31889679 20.13767606 144.42610298 21.41160133 148 23 C147.38188466 27.55315948 145.53234107 31.28459767 143.4375 35.3125 C142.9434668 36.28026367 142.9434668 36.28026367 142.43945312 37.26757812 C141.63175745 38.84785228 140.81662387 40.42432105 140 42 C139.11570312 41.67644531 138.23140625 41.35289063 137.3203125 41.01953125 C134.30266082 40.09293467 132.00419069 39.70221406 128.875 39.6875 C128.04742187 39.67074219 127.21984375 39.65398437 126.3671875 39.63671875 C123.40147945 40.09185216 122.13295951 40.89908066 120 43 C117.87398864 47.16327988 117.66205467 51.12052388 117.5859375 55.70703125 C117.56657135 56.43242599 117.5472052 57.15782074 117.5272522 57.90519714 C117.46777892 60.20751422 117.42120155 62.50988219 117.375 64.8125 C117.33679042 66.37957832 117.29773697 67.94663631 117.2578125 69.51367188 C117.16052505 73.34233825 117.08070406 77.1708049 117 81 C110.07 81 103.14 81 96 81 C95.67 76.38 95.34 71.76 95 67 C93.1128125 69.3203125 93.1128125 69.3203125 91.1875 71.6875 C85.72374468 77.79099882 79.10630257 81.53535499 71 83 C56.91734361 83.76122467 46.59102231 82.65127027 35 74 C35.33 75.98 35.66 77.96 36 80 C28.04624229 83.23542686 20.03733697 84.54082918 11.56640625 82.37890625 C6.19894419 80.09595925 3.37881578 76.22726901 1 71 C-0.1602454 67.41023366 -0.11412568 64.02065526 -0.09765625 60.265625 C-0.09443359 58.97011719 -0.09121094 57.67460938 -0.08789062 56.33984375 C-0.07953598 54.97656183 -0.07107104 53.61328058 -0.0625 52.25 C-0.05748168 50.87109535 -0.05291935 49.49218896 -0.04882812 48.11328125 C-0.03704093 44.74214341 -0.02058635 41.37109372 0 38 C-1.98 38 -3.96 38 -6 38 C-6 52.19 -6 66.38 -6 81 C-38.67 81 -71.34 81 -105 81 C-105.495 60.21 -105.495 60.21 -106 39 C-107.959375 42.795 -109.91875 46.59 -111.9375 50.5 C-115.94170622 58.22322548 -119.9782215 65.92083614 -124.25 73.5 C-124.61988037 74.15677734 -124.98976074 74.81355469 -125.37084961 75.49023438 C-127.8575004 79.8575004 -127.8575004 79.8575004 -129 81 C-131.53049402 81.07313567 -134.03304837 81.09247527 -136.5625 81.0625 C-137.62887695 81.05573242 -137.62887695 81.05573242 -138.71679688 81.04882812 C-140.47790013 81.03700864 -142.23896036 81.01907263 -144 81 C-150.95773519 68.94785471 -157.46968773 56.66359955 -163.97045898 44.36132812 C-164.68342574 43.01301806 -165.39639763 41.6647107 -166.109375 40.31640625 C-166.44993423 39.67120026 -166.79049347 39.02599426 -167.14137268 38.36123657 C-169.41449828 34.06664676 -171.75824714 29.81999454 -174.19628906 25.61694336 C-175 24 -175 24 -175 22 C-166.75 22 -158.5 22 -150 22 C-146.9375 28.625 -146.9375 28.625 -146.02319336 30.61181641 C-142.82767993 37.48926392 -139.39731028 44.20537945 -136 51 C-131.71 41.43 -127.42 31.86 -123 22 C-109.8 22 -96.6 22 -83 22 C-82.67 38.5 -82.34 55 -82 72 C-71.11 55.665 -71.11 55.665 -60 39 C-70.89 38.505 -70.89 38.505 -82 38 C-82 32.72 -82 27.44 -82 22 C-54.94 22 -27.88 22 0 22 C0 14.74 0 7.48 0 0 Z M-28 29 C-29.66799044 31.34907371 -31.28212297 33.71373887 -32.875 36.11328125 C-33.35952637 36.83863571 -33.84405273 37.56399017 -34.34326172 38.31132507 C-35.37052023 39.8511893 -36.39602085 41.39222742 -37.41992188 42.93432617 C-38.98835478 45.29497279 -40.56406337 47.65063613 -42.140625 50.00585938 C-43.13586057 51.49970436 -44.13066638 52.99383576 -45.125 54.48828125 C-45.5979248 55.19463211 -46.07084961 55.90098297 -46.55810547 56.6287384 C-48.38925349 59.39526609 -49.94582937 61.8374881 -51 65 C-43.08 65 -35.16 65 -27 65 C-27 53.12 -27 41.24 -27 29 C-27.33 29 -27.66 29 -28 29 Z M21 38 C20.91279081 41.58317958 20.85953888 45.16608567 20.8125 48.75 C20.78736328 49.76578125 20.76222656 50.7815625 20.73632812 51.828125 C20.72666016 52.8078125 20.71699219 53.7875 20.70703125 54.796875 C20.6913208 55.69760742 20.67561035 56.59833984 20.65942383 57.52636719 C21.06238228 60.45308763 22.0655403 61.81341349 24 64 C25.32 63.67 26.64 63.34 28 63 C27.98839844 61.69804688 27.97679687 60.39609375 27.96484375 59.0546875 C27.95546027 57.32812644 27.94636066 55.60156382 27.9375 53.875 C27.92912109 53.0190625 27.92074219 52.163125 27.91210938 51.28125 C27.89461694 46.73321589 28.06807642 42.47616836 29 38 C26.36 38 23.72 38 21 38 Z M51.6875 43.125 C49.38154165 47.05366979 48.68093939 50.45533183 49 55 C50.25179821 59.04307495 52.3049197 61.52116691 55.8125 63.9375 C59.54247221 65.18082407 62.09081737 65.48864783 66 65 C69.83944355 62.93260732 72.85433378 60.83961324 75 57 C76.40729664 52.12858855 75.95120073 48.66591478 74 44 C70.96777777 40.6789947 68.40316157 38.79290649 64 38 C58.47145308 38 55.70755254 39.43089767 51.6875 43.125 Z " fill="#FDFBFB" transform="translate(263,34)"/>
<path d="M0 0 C3.47065399 3.47065399 4.90575431 5.86905171 5.3125 10.75 C5.26462501 15.13854092 3.82706424 17.60752292 1 21 C-3.45577347 23.97051564 -7.77442606 23.62737491 -13 23 C-16.53214485 20.98163151 -18.80160052 18.92203467 -20 15 C-20.45454925 10.30299108 -20.4551419 7.96490083 -18.4375 3.6875 C-13.03994521 -2.26365015 -7.1754243 -3.1088879 0 0 Z " fill="#FDFBFB" transform="translate(254,21)"/>
<path d="M0 0 C2.95057811 3.03488034 4.12149377 5.11838711 4.25390625 9.39453125 C4.01531714 13.75420493 3.57072079 15.77834364 0.75 19.25 C-3.910808 22.8877038 -8.02624924 22.91519103 -13.8125 22.25 C-17.47961159 20.11085157 -19.18322212 18.10102043 -20.8125 14.25 C-21.45948574 10.50429308 -21.6094399 6.8678222 -19.90234375 3.40234375 C-14.72305425 -3.37569749 -7.14714277 -4.44711106 0 0 Z " fill="#FDFBFB" transform="translate(177.8125,21.75)"/>
</svg>
